# xmcd
#
# Track frame offsets: 
#        150
#        14088
#        29442
#        46462
#        59539
#        74364
#        86582
#        99975
#        113470
#        129170
#        147662
#        163097
#        177812
#        195070
#        207653
#        229413
#        247328
#        261287
#        282969
#        294092
#
# Disc length: 4133 seconds
#
# Revision: 0
# Processed by: cddbd v1.5.2PL0 Copyright (c) Steve Scherf et al.
# Submitted via: ExactAudioCopy v0.95b4
#
DISCID=2b102314
DTITLE=Various Artist - Saskatchewan Centennial No Boundaries
DYEAR=2005
DGENRE=Country
TTITLE0=Same Things - Poverty Plainsmen
TTITLE1=What I Gotta Do - Stephanie Thompson
TTITLE2=My Brother And Me - Brad Johner
TTITLE3=The Finger - Faster Gun
TTITLE4=Second Hand Saddle - Eli Barsi
TTITLE5=The Slippery Slope - Bob Evans
TTITLE6=Hank - Crooked Creek
TTITLE7=Grey Owl - John Arcand
TTITLE8=Aging Grace - Heather Bishop
TTITLE9=West Coast Flyer - Brian Sklar and Prairie Fire
TTITLE10=Born Country - Ian Eaton and Battle River
TTITLE11=Fred Brophy - Joel Fafard
TTITLE12=Tread Softly - Eileen Laverty
TTITLE13=A Vaquero's Dream - Freddie Pelletier
TTITLE14=See The Arrow - Winston Wuttunee
TTITLE15=Shoebox - Tom Jackson
TTITLE16=Harsh And Unforgiving - Connie Kaldor
TTITLE17=Souvenirs - Les Zed
TTITLE18=One More For The Women - Humphrey and the Dumptrucks
TTITLE19=Trains Of Dreams - Gary Fjellgaard
EXTD=
EXTT0=
EXTT1=
EXTT2=
EXTT3=
EXTT4=
EXTT5=
EXTT6=
EXTT7=
EXTT8=
EXTT9=
EXTT10=
EXTT11=
EXTT12=
EXTT13=
EXTT14=
EXTT15=
EXTT16=
EXTT17=
EXTT18=
EXTT19=
PLAYORDER=
